<svg width="596" height="298" viewBox="0 0 596 298" fill="none" xmlns="http://www.w3.org/2000/svg">
<path d="M283.072 216.82C265.107 212.639 252.991 203.128 246.724 188.287C240.484 173.327 240.207 153.63 245.893 129.199C251.579 104.767 260.51 87.2765 272.686 76.7276C284.89 66.059 299.974 62.8151 317.939 66.9958C335.903 71.1765 348.005 80.7472 354.245 95.708C360.512 110.549 360.803 130.185 355.118 154.617C349.432 179.049 340.487 196.599 328.283 207.268C316.107 217.817 301.036 221.001 283.072 216.82ZM288.339 194.185C297.921 196.414 305.976 193.807 312.506 186.363C319.183 178.827 324.585 166.197 328.71 148.472C332.862 130.627 333.593 116.909 330.901 107.319C328.329 97.7568 322.252 91.8608 312.671 89.6311C303.21 87.4293 295.154 90.0365 288.505 97.4527C281.883 104.749 276.482 117.38 272.301 135.344C268.12 153.309 267.376 167.086 270.068 176.676C272.788 186.147 278.878 191.983 288.339 194.185Z" fill="white"/>
<path d="M144.833 214.341L149.922 181.16L74.9907 169.668L77.7866 151.437L169.121 66.918L193.916 70.7205L179.601 164.066L199.291 167.085L196.047 188.234L176.357 185.214L171.269 218.395L144.833 214.341ZM107.587 153.021L154.259 160.179L163.122 102.385L162.393 102.274L107.587 153.021Z" fill="white"/>
<path d="M479.668 214.039L474.938 180.804L399.887 191.485L397.288 173.225L460.261 65.894L485.096 62.3597L498.401 155.854L518.123 153.047L521.137 174.23L501.416 177.036L506.146 210.27L479.668 214.039ZM426.272 166.119L473.019 159.466L464.781 101.58L464.051 101.684L426.272 166.119Z" fill="white"/>
</svg>
