<svg width="34" height="18" viewBox="0 0 34 18" fill="none" xmlns="http://www.w3.org/2000/svg">
<path d="M0.224712 8.45528L7.95181 0.72812C8.22938 0.403997 8.71719 0.366212 9.04132 0.643852C9.36544 0.921425 9.40322 1.40924 9.12558 1.73336C9.09969 1.76357 9.07153 1.7918 9.04132 1.81763L2.63555 8.23116H33.2273C33.654 8.23116 34 8.57713 34 9.00392C34 9.4307 33.654 9.77661 33.2273 9.77661H2.63555L9.04132 16.1824C9.36544 16.4599 9.40322 16.9478 9.12558 17.2719C8.84794 17.596 8.3602 17.6338 8.03608 17.3562C8.00586 17.3303 7.97764 17.3021 7.95181 17.2719L0.224644 9.54472C-0.0749092 9.24344 -0.0749092 8.75669 0.224712 8.45528Z" fill="white"/>
</svg>
