<svg width="107" height="34" viewBox="0 0 107 34" fill="none" xmlns="http://www.w3.org/2000/svg">
<path fill-rule="evenodd" clip-rule="evenodd" d="M8.61749 3.5415H18.9994V7.62242H15.3294C15.9202 8.73174 16.2559 10.0038 16.2559 11.356C16.2559 15.6719 12.8364 19.1705 8.61819 19.1705C4.39999 19.1705 0.980469 15.6719 0.980469 11.356C0.980469 7.04042 4.39961 3.54189 8.61749 3.5415ZM8.61819 15.0896C10.6335 15.0896 12.2673 13.418 12.2673 11.356C12.2673 9.29401 10.6335 7.62242 8.61819 7.62242H8.61749C6.60245 7.6228 4.96905 9.29425 4.96905 11.356C4.96905 13.418 6.60283 15.0896 8.61819 15.0896Z" fill="#079455"/>
<path opacity="0.7" d="M8.6178 30.4579C7.19483 30.4579 5.90527 30.1855 4.74911 29.6407C3.59295 29.1186 2.67024 28.3809 1.98099 27.4275C1.31398 26.4741 0.980469 25.3845 0.980469 24.1586C0.980469 23.2052 1.11387 22.4221 1.38068 21.8092C1.64748 21.1963 2.04769 20.6061 2.58131 20.0386L5.88303 22.2178C5.66069 22.4221 5.49394 22.6604 5.38277 22.9328C5.2716 23.2052 5.21602 23.5457 5.21602 23.9543C5.21602 24.7034 5.51617 25.2937 6.11649 25.725C6.73261 26.1743 7.56651 26.4012 8.61819 26.4059C9.66986 26.4012 10.5038 26.1743 11.1199 25.725C11.7202 25.2937 12.0204 24.7034 12.0204 23.9543C12.0204 23.5457 11.9648 23.2052 11.8536 22.9328C11.7424 22.6604 11.5757 22.4221 11.3533 22.2178L14.6551 20.0386C15.1887 20.6061 15.5889 21.1963 15.8557 21.8092C16.1225 22.4221 16.2559 23.2052 16.2559 24.1586C16.2559 25.3845 15.9224 26.4741 15.2554 27.4275C14.5661 28.3809 13.6434 29.1186 12.4873 29.6407C11.3311 30.1855 10.0408 30.4579 8.6178 30.4579Z" fill="#079455"/>
<path fill-rule="evenodd" clip-rule="evenodd" d="M63.1281 22.7956C63.8383 23.2296 64.6471 23.4466 65.5545 23.4466C66.2121 23.4466 66.8104 23.3151 67.3496 23.0521C67.6334 22.9067 67.8899 22.7377 68.119 22.545V23.2493H71.078V8.92767H68.0598V14.2845C67.8408 14.1119 67.5975 13.9637 67.3299 13.8396C66.8039 13.5898 66.2121 13.4648 65.5545 13.4648C64.6471 13.4648 63.8383 13.6818 63.1281 14.1158C62.4311 14.5498 61.8787 15.1416 61.4711 15.8912C61.0765 16.6409 60.8792 17.4957 60.8792 18.4557C60.8792 19.4158 61.0765 20.2706 61.4711 21.0202C61.8787 21.7698 62.4311 22.3616 63.1281 22.7956ZM67.2116 20.4481C66.8959 20.6322 66.5211 20.7243 66.0871 20.7243C65.6794 20.7243 65.3112 20.6257 64.9824 20.4284C64.6536 20.2311 64.3972 19.9615 64.2131 19.6196C64.029 19.2777 63.9369 18.8897 63.9369 18.4557C63.9369 18.0217 64.029 17.6338 64.2131 17.2918C64.4103 16.9499 64.6668 16.6803 64.9824 16.483C65.3112 16.2858 65.686 16.1871 66.1068 16.1871C66.5277 16.1871 66.8959 16.2858 67.2116 16.483C67.5403 16.6803 67.7902 16.9499 67.9612 17.2918C68.1453 17.6206 68.2373 18.0086 68.2373 18.4557C68.2373 18.9029 68.1453 19.2974 67.9612 19.6393C67.7771 19.9813 67.5272 20.2509 67.2116 20.4481Z" fill="#3E3E3E"/>
<path d="M28.4188 22.914C29.3131 23.2822 30.2665 23.4663 31.2792 23.4663C32.6601 23.4663 33.8766 23.177 34.9286 22.5983C35.9939 22.0197 36.8224 21.1649 37.4142 20.0339C38.0192 18.8897 38.3217 17.4825 38.3217 15.8123V15.3586H31.003V17.9823L35.0042 18.0458C34.9275 18.3356 34.8234 18.6038 34.6919 18.8503C34.3894 19.4289 33.9489 19.876 33.3702 20.1917C32.8047 20.4942 32.1143 20.6454 31.2989 20.6454C30.4967 20.6454 29.7865 20.4613 29.1684 20.093C28.5503 19.7248 28.0637 19.2119 27.7086 18.5544C27.3536 17.8968 27.176 17.134 27.176 16.266C27.176 15.3981 27.3536 14.6419 27.7086 13.9975C28.0769 13.3399 28.5832 12.8336 29.2276 12.4785C29.872 12.1103 30.6019 11.9261 31.4173 11.9261C32.18 11.9261 32.8639 12.0708 33.4689 12.3601C34.0738 12.6495 34.5999 13.0835 35.047 13.6621L37.1578 11.5513C36.5134 10.7886 35.698 10.1902 34.7117 9.7562C33.7385 9.32221 32.6535 9.10521 31.4567 9.10521C30.4178 9.10521 29.4446 9.28933 28.5372 9.65756C27.6297 10.0126 26.8341 10.519 26.1502 11.1765C25.4795 11.8209 24.9535 12.5771 24.5721 13.4451C24.1907 14.3131 24 15.2534 24 16.266C24 17.2787 24.1841 18.2256 24.5524 19.1067C24.9337 19.9747 25.4532 20.7375 26.1108 21.395C26.7683 22.0394 27.5377 22.5457 28.4188 22.914Z" fill="#3E3E3E"/>
<path fill-rule="evenodd" clip-rule="evenodd" d="M41.4613 22.8153C42.2635 23.2493 43.1578 23.4663 44.1441 23.4663C45.1436 23.4663 46.0379 23.2493 46.827 22.8153C47.6161 22.3682 48.2407 21.7632 48.701 21.0005C49.1613 20.2377 49.3915 19.3829 49.3915 18.436C49.3915 17.4891 49.1613 16.6409 48.701 15.8912C48.2407 15.1285 47.6161 14.5301 46.827 14.0961C46.0379 13.6621 45.1436 13.4451 44.1441 13.4451C43.1447 13.4451 42.2504 13.6687 41.4613 14.1158C40.6722 14.5498 40.0475 15.1416 39.5873 15.8912C39.127 16.6409 38.8968 17.4891 38.8968 18.436C38.8968 19.3829 39.127 20.2377 39.5873 21.0005C40.0475 21.7632 40.6722 22.3682 41.4613 22.8153ZM45.2883 20.4481C44.9595 20.6322 44.5781 20.7243 44.1441 20.7243C43.7233 20.7243 43.3485 20.6322 43.0197 20.4481C42.6909 20.2509 42.4345 19.9813 42.2504 19.6393C42.0663 19.2842 41.9742 18.8897 41.9742 18.4557C41.9742 18.0086 42.0663 17.614 42.2504 17.2721C42.4345 16.9302 42.6909 16.6672 43.0197 16.483C43.3485 16.2858 43.7233 16.1871 44.1441 16.1871C44.5781 16.1871 44.9529 16.2858 45.2686 16.483C45.5974 16.6672 45.8538 16.9302 46.0379 17.2721C46.222 17.6009 46.3141 17.9888 46.3141 18.436C46.3141 18.8831 46.222 19.2842 46.0379 19.6393C45.867 19.9813 45.6171 20.2509 45.2883 20.4481Z" fill="#3E3E3E"/>
<path fill-rule="evenodd" clip-rule="evenodd" d="M55.1156 23.4663C54.1293 23.4663 53.235 23.2493 52.4328 22.8153C51.6437 22.3682 51.019 21.7632 50.5587 21.0005C50.0985 20.2377 49.8683 19.3829 49.8683 18.436C49.8683 17.4891 50.0985 16.6409 50.5587 15.8912C51.019 15.1416 51.6437 14.5498 52.4328 14.1158C53.2219 13.6687 54.1161 13.4451 55.1156 13.4451C56.1151 13.4451 57.0094 13.6621 57.7985 14.0961C58.5876 14.5301 59.2122 15.1285 59.6725 15.8912C60.1328 16.6409 60.363 17.4891 60.363 18.436C60.363 19.3829 60.1328 20.2377 59.6725 21.0005C59.2122 21.7632 58.5876 22.3682 57.7985 22.8153C57.0094 23.2493 56.1151 23.4663 55.1156 23.4663ZM55.1156 20.7243C55.5496 20.7243 55.931 20.6322 56.2598 20.4481C56.5886 20.2509 56.8384 19.9813 57.0094 19.6393C57.1935 19.2842 57.2856 18.8831 57.2856 18.436C57.2856 17.9888 57.1935 17.6009 57.0094 17.2721C56.8253 16.9302 56.5688 16.6672 56.2401 16.483C55.9244 16.2858 55.5496 16.1871 55.1156 16.1871C54.6948 16.1871 54.32 16.2858 53.9912 16.483C53.6624 16.6672 53.406 16.9302 53.2219 17.2721C53.0377 17.614 52.9457 18.0086 52.9457 18.4557C52.9457 18.8897 53.0377 19.2842 53.2219 19.6393C53.406 19.9813 53.6624 20.2509 53.9912 20.4481C54.32 20.6322 54.6948 20.7243 55.1156 20.7243Z" fill="#3E3E3E"/>
<path d="M79.4927 17.7258L77.6022 23.2493H75.1561L71.842 13.6621H74.801L76.4428 19.2349L78.2532 13.6621H80.6993L82.5192 19.216L84.1712 13.6621H87.1302L83.8161 23.2493H81.3503L79.4927 17.7258Z" fill="#3E3E3E"/>
<path fill-rule="evenodd" clip-rule="evenodd" d="M89.7221 22.8153C90.5375 23.2493 91.4778 23.4663 92.5431 23.4663C93.3716 23.4663 94.1212 23.3282 94.7919 23.0521C95.4758 22.7627 96.0742 22.3353 96.5871 21.7698L94.93 20.1128C94.6275 20.4547 94.2856 20.7111 93.9042 20.8821C93.536 21.0399 93.1151 21.1188 92.6417 21.1188C92.3297 21.1188 92.0375 21.0792 91.7652 21L96.7054 16.2266C96.324 15.3323 95.7651 14.6484 95.0286 14.175C94.2922 13.6884 93.3979 13.4451 92.3458 13.4451C91.3463 13.4451 90.4454 13.6687 89.6432 14.1158C88.8542 14.5498 88.2295 15.1416 87.7692 15.8912C87.322 16.6409 87.0985 17.4891 87.0985 18.436C87.0985 19.3829 87.3286 20.2377 87.7889 21.0005C88.2624 21.7632 88.9068 22.3682 89.7221 22.8153ZM93.6304 16.1678L90.1189 19.5482C89.9728 19.1876 89.8997 18.784 89.8997 18.3374C89.8997 17.8376 89.9983 17.4036 90.1956 17.0354C90.3928 16.654 90.6756 16.3647 91.0438 16.1674C91.4121 15.957 91.8526 15.8518 92.3655 15.8518C92.8866 15.8518 93.3082 15.9571 93.6304 16.1678Z" fill="#3E3E3E"/>
<path d="M97.6797 23.2493V8.92767H100.698V23.2493H97.6797Z" fill="#3E3E3E"/>
<path d="M102.429 8.92767V23.2493H105.447V8.92767H102.429Z" fill="#3E3E3E"/>
</svg>
