<svg width="144" height="34" viewBox="0 0 144 34" fill="none" xmlns="http://www.w3.org/2000/svg">
<path d="M0 6.37498C0 4.41897 1.58566 2.83331 3.54167 2.83331H10.625C12.581 2.83331 14.1667 4.41897 14.1667 6.37498V13.3302C14.1668 13.3728 14.1669 13.4155 14.1669 13.4583C14.1669 15.4115 15.748 16.9954 17.7001 17C17.7029 17 17.7056 17 17.7083 17H24.7917C26.7477 17 28.3333 18.5856 28.3333 20.5416V27.625C28.3333 29.581 26.7477 31.1666 24.7917 31.1666H17.7083C15.7523 31.1666 14.1667 29.581 14.1667 27.625V20.5416C14.1667 20.5318 14.1667 20.522 14.1668 20.5122C14.151 18.5698 12.5714 17 10.6252 17C10.6161 17 10.6069 17 10.5978 17H3.54167C1.58566 17 0 15.4143 0 13.4583V6.37498Z" fill="#3E3E3E"/>
<path fill-rule="evenodd" clip-rule="evenodd" d="M66.6911 23.63C65.6995 23.63 64.814 23.3891 64.0349 22.9074C63.2557 22.4258 62.6395 21.767 62.1861 20.9312C61.7328 20.0954 61.5061 19.1462 61.5061 18.0837C61.5061 17.0212 61.7328 16.0791 62.1861 15.2575C62.6395 14.4216 63.2557 13.77 64.0349 13.3025C64.814 12.8208 65.6995 12.58 66.6911 12.58C67.4845 12.58 68.1786 12.7287 68.7736 13.0262C69.3686 13.3237 69.8503 13.7416 70.2186 14.28V8.07495H72.9386V23.3749H70.5161L70.2186 21.8662C69.8786 22.3337 69.4253 22.7445 68.8586 23.0987C68.3061 23.4529 67.5836 23.63 66.6911 23.63ZM67.2649 21.25C68.1432 21.25 68.8586 20.9595 69.4111 20.3787C69.9778 19.7837 70.2611 19.0258 70.2611 18.105C70.2611 17.1841 69.9778 16.4333 69.4111 15.8525C68.8586 15.2575 68.1432 14.96 67.2649 14.96C66.4007 14.96 65.6853 15.2504 65.1186 15.8312C64.552 16.412 64.2686 17.1629 64.2686 18.0837C64.2686 19.0045 64.552 19.7625 65.1186 20.3574C65.6853 20.9524 66.4007 21.25 67.2649 21.25Z" fill="#3E3E3E"/>
<path d="M38.7739 22.6737C39.8506 23.3112 41.1398 23.63 42.6414 23.63C44.4264 23.63 45.8856 23.1979 47.0189 22.3337C48.1664 21.4695 48.8819 20.2725 49.1652 18.7425H46.1689C45.9848 19.5075 45.5881 20.1095 44.9789 20.5487C44.3839 20.9737 43.5906 21.1862 42.5989 21.1862C41.2248 21.1862 40.1481 20.7258 39.3689 19.805C38.5898 18.87 38.2002 17.5879 38.2002 15.9587C38.2002 14.3295 38.5898 13.0475 39.3689 12.1125C40.1481 11.1775 41.2248 10.71 42.5989 10.71C43.5906 10.71 44.3839 10.9437 44.9789 11.4112C45.5881 11.8645 45.9848 12.495 46.1689 13.3025H49.1652C48.8819 11.7016 48.1664 10.462 47.0189 9.5837C45.8856 8.6912 44.4264 8.24495 42.6414 8.24495C41.1398 8.24495 39.8506 8.57078 38.7739 9.22245C37.6973 9.87412 36.8685 10.7808 36.2877 11.9425C35.7069 13.1041 35.4164 14.4429 35.4164 15.9587C35.4164 17.4745 35.7069 18.8133 36.2877 19.975C36.8685 21.1225 37.6973 22.022 38.7739 22.6737Z" fill="#3E3E3E"/>
<path fill-rule="evenodd" clip-rule="evenodd" d="M52.5292 22.9287C53.3508 23.3962 54.2717 23.63 55.2917 23.63C56.2975 23.63 57.2113 23.3962 58.0329 22.9287C58.8546 22.4612 59.4992 21.8166 59.9667 20.995C60.4483 20.1591 60.6892 19.1958 60.6892 18.105C60.6892 17.0141 60.4483 16.0579 59.9667 15.2362C59.4992 14.4004 58.8546 13.7487 58.0329 13.2812C57.2254 12.8137 56.3187 12.58 55.3129 12.58C54.2929 12.58 53.3721 12.8137 52.5504 13.2812C51.7429 13.7487 51.0983 14.4004 50.6167 15.2362C50.135 16.0579 49.8942 17.0141 49.8942 18.105C49.8942 19.1958 50.1279 20.1591 50.5954 20.995C51.0771 21.8166 51.7217 22.4612 52.5292 22.9287ZM57.1404 20.485C56.6162 21.0091 56 21.2712 55.2917 21.2712C54.5833 21.2712 53.9671 21.0091 53.4429 20.485C52.9329 19.9466 52.6779 19.1533 52.6779 18.105C52.6779 17.0566 52.9329 16.2704 53.4429 15.7462C53.9671 15.2079 54.5904 14.9387 55.3129 14.9387C56.0071 14.9387 56.6162 15.2079 57.1404 15.7462C57.6646 16.2704 57.9267 17.0566 57.9267 18.105C57.9267 19.1533 57.6646 19.9466 57.1404 20.485Z" fill="#3E3E3E"/>
<path fill-rule="evenodd" clip-rule="evenodd" d="M76.7284 22.9499C77.5501 23.4033 78.4922 23.63 79.5547 23.63C80.4047 23.63 81.1626 23.4741 81.8284 23.1624C82.5084 22.8508 83.0751 22.4258 83.5284 21.8874C83.9959 21.3349 84.3288 20.7258 84.5272 20.0599H81.7647C81.5805 20.4566 81.2972 20.7824 80.9147 21.0375C80.5463 21.2783 80.0859 21.3987 79.5334 21.3987C78.7968 21.3987 78.1663 21.165 77.6422 20.6975C77.1322 20.23 76.8488 19.5854 76.7922 18.7637H84.8034C84.8176 18.5795 84.8247 18.4024 84.8247 18.2325C84.8388 18.0625 84.8459 17.8995 84.8459 17.7437C84.8459 16.7804 84.6193 15.9091 84.1659 15.13C83.7268 14.3366 83.1105 13.7133 82.3172 13.26C81.5238 12.8066 80.6101 12.58 79.5759 12.58C78.4709 12.58 77.5076 12.8208 76.6859 13.3025C75.8784 13.77 75.2409 14.4287 74.7734 15.2787C74.3201 16.1287 74.0934 17.0991 74.0934 18.19C74.0934 19.2666 74.3272 20.2158 74.7947 21.0375C75.2622 21.8591 75.9068 22.4966 76.7284 22.9499ZM77.8122 15.3637C78.3222 14.9812 78.9101 14.79 79.5759 14.79C80.2701 14.79 80.8509 14.9954 81.3184 15.4062C81.7859 15.817 82.0409 16.3695 82.0834 17.0637H76.8347C76.9763 16.2987 77.3022 15.732 77.8122 15.3637Z" fill="#3E3E3E"/>
<path d="M91.0224 23.63C89.9457 23.63 88.9965 23.3962 88.1749 22.9287C87.3532 22.4612 86.7015 21.8095 86.2199 20.9737C85.7524 20.1379 85.5186 19.1816 85.5186 18.105C85.5186 17.0283 85.7524 16.072 86.2199 15.2362C86.7015 14.4004 87.3532 13.7487 88.1749 13.2812C88.9965 12.8137 89.9457 12.58 91.0224 12.58C92.3682 12.58 93.5015 12.9341 94.4224 13.6425C95.3432 14.3366 95.9311 15.3 96.1861 16.5325H93.3174C93.1757 16.0225 92.8924 15.6258 92.4674 15.3425C92.0565 15.045 91.5678 14.8962 91.0011 14.8962C90.2503 14.8962 89.6128 15.1795 89.0886 15.7462C88.5645 16.3129 88.3024 17.0991 88.3024 18.105C88.3024 19.1108 88.5645 19.897 89.0886 20.4637C89.6128 21.0304 90.2503 21.3137 91.0011 21.3137C91.5678 21.3137 92.0565 21.172 92.4674 20.8887C92.8924 20.6054 93.1757 20.2016 93.3174 19.6775H96.1861C95.9311 20.8675 95.3432 21.8237 94.4224 22.5462C93.5015 23.2687 92.3682 23.63 91.0224 23.63Z" fill="#3E3E3E"/>
<path d="M100.003 14.8112L99.7478 12.835H97.3253V23.3749H100.045V18.5725C100.045 17.765 100.173 17.1345 100.428 16.6812C100.697 16.2279 101.065 15.9091 101.533 15.725C102 15.5408 102.532 15.4487 103.127 15.4487H103.892V12.58C102.999 12.58 102.22 12.7854 101.554 13.1962C100.902 13.5929 100.385 14.1312 100.003 14.8112Z" fill="#3E3E3E"/>
<path fill-rule="evenodd" clip-rule="evenodd" d="M108.109 23.63C107.203 23.63 106.459 23.4883 105.878 23.205C105.297 22.9074 104.865 22.5179 104.582 22.0362C104.299 21.5545 104.157 21.0233 104.157 20.4425C104.157 19.465 104.539 18.6716 105.304 18.0625C106.069 17.4533 107.217 17.1487 108.747 17.1487H111.424V16.8937C111.424 16.1712 111.219 15.64 110.808 15.3C110.397 14.96 109.887 14.79 109.278 14.79C108.726 14.79 108.244 14.9245 107.833 15.1937C107.422 15.4487 107.167 15.8312 107.068 16.3412H104.412C104.483 15.5762 104.738 14.9104 105.177 14.3437C105.63 13.777 106.211 13.345 106.919 13.0475C107.628 12.7358 108.421 12.58 109.299 12.58C110.801 12.58 111.984 12.9554 112.848 13.7062C113.712 14.457 114.144 15.5195 114.144 16.8937V23.3749H111.828L111.573 21.675C111.261 22.2416 110.822 22.7091 110.256 23.0774C109.703 23.4458 108.988 23.63 108.109 23.63ZM108.726 21.505C109.505 21.505 110.107 21.25 110.532 20.74C110.971 20.23 111.247 19.5995 111.361 18.8487H109.044C108.322 18.8487 107.805 18.9833 107.493 19.2524C107.181 19.5075 107.026 19.8262 107.026 20.2087C107.026 20.6195 107.181 20.9383 107.493 21.165C107.805 21.3916 108.216 21.505 108.726 21.505Z" fill="#3E3E3E"/>
<path d="M116.91 8.88245C116.273 9.42078 115.954 10.3275 115.954 11.6025V12.835H114.509V15.1087H115.954V23.3749H118.674V15.1087H122.868V19.6987C122.868 21.0729 123.201 22.0291 123.867 22.5675C124.533 23.1058 125.418 23.3749 126.523 23.3749H128.372V21.0587H127.054C126.516 21.0587 126.133 20.9666 125.907 20.7824C125.694 20.5841 125.588 20.2299 125.588 19.72V15.1087H128.435V12.835H125.588V10.0087H123.187L122.868 12.835H118.674V11.6025C118.674 11.1633 118.773 10.8516 118.971 10.6675C119.17 10.4833 119.503 10.3912 119.97 10.3912H120.714V8.07495H119.545C118.44 8.07495 117.562 8.34412 116.91 8.88245Z" fill="#3E3E3E"/>
<path d="M129.262 24.1825V26.775H142.855V24.1825H129.262Z" fill="#3E3E3E"/>
</svg>
