<svg width="108" height="34" viewBox="0 0 108 34" fill="none" xmlns="http://www.w3.org/2000/svg">
<path fill-rule="evenodd" clip-rule="evenodd" d="M24.4991 5.95029L17.6377 4.11177C17.164 3.98484 16.78 4.27949 16.78 4.76989V11.8734C16.78 12.3638 17.164 12.8642 17.6377 12.9912L24.4991 14.8297C24.9728 14.9566 25.3568 14.662 25.3568 14.1716V7.06805C25.3568 6.57765 24.9728 6.07721 24.4991 5.95029ZM17.6377 1.44795C15.7429 0.940254 14.2069 2.11886 14.2069 4.08044V11.184C14.2069 13.1455 15.7429 15.1473 17.6377 15.655L24.4991 17.4935C26.3939 18.0012 27.9299 16.8226 27.9299 14.861V7.75749C27.9299 5.79591 26.3939 3.79417 24.4991 3.28647L17.6377 1.44795Z" fill="#8098F9"/>
<path fill-rule="evenodd" clip-rule="evenodd" d="M19.1111 11.7377L10.5342 9.43952C10.0606 9.3126 9.67657 9.60725 9.67657 10.0976V18.977C9.67657 19.4674 10.0606 19.9679 10.5342 20.0948L19.1111 22.393C19.5848 22.5199 19.9688 22.2252 19.9688 21.7348V12.8554C19.9688 12.365 19.5848 11.8646 19.1111 11.7377ZM10.5342 6.77571C8.63951 6.26801 7.10352 7.44662 7.10352 9.4082V18.2876C7.10352 20.2492 8.63951 22.2509 10.5342 22.7586L19.1111 25.0568C21.0058 25.5645 22.5418 24.3859 22.5418 22.4243V13.5449C22.5418 11.5833 21.0058 9.58156 19.1111 9.07386L10.5342 6.77571Z" fill="#6172F3"/>
<path fill-rule="evenodd" clip-rule="evenodd" d="M13.7229 17.525L3.43073 14.7672C2.95705 14.6403 2.57305 14.935 2.57305 15.4253V26.0806C2.57305 26.571 2.95705 27.0714 3.43073 27.1984L13.7229 29.9562C14.1966 30.0831 14.5806 29.7884 14.5806 29.298V18.6428C14.5806 18.1524 14.1966 17.6519 13.7229 17.525ZM3.43073 12.1034C1.53599 11.5957 0 12.7743 0 14.7359V25.3912C0 27.3528 1.53599 29.3545 3.43073 29.8622L13.7229 32.62C15.6177 33.1277 17.1537 31.9491 17.1537 29.9875V19.3322C17.1537 17.3706 15.6177 15.3689 13.7229 14.8612L3.43073 12.1034Z" fill="#444CE7"/>
<path d="M37.9952 23.0975C38.8017 23.4677 39.7273 23.6528 40.7718 23.6528C41.8164 23.6528 42.7287 23.4743 43.5088 23.1173C44.3022 22.7471 44.917 22.2314 45.3533 21.5703C45.7897 20.896 46.0078 20.1093 46.0078 19.2102V18.9722C46.0078 18.1392 45.8161 17.4648 45.4327 16.9492C45.0492 16.4203 44.56 16.0302 43.965 15.779C43.3832 15.5278 42.7816 15.4022 42.1602 15.4022H41.4263V15.0848L45.6112 12.8635V9.49182H35.7738V11.7528H42.7948V12.0702L38.3125 14.4502V17.2268H41.0892C41.5387 17.2268 41.942 17.2929 42.299 17.4252C42.656 17.5442 42.9403 17.7359 43.1518 18.0003C43.3634 18.2648 43.4692 18.6085 43.4692 19.0317V19.23C43.4692 19.8514 43.2312 20.3671 42.7552 20.777C42.2924 21.1869 41.6313 21.3918 40.7718 21.3918C39.9256 21.3918 39.2447 21.1737 38.729 20.7373C38.2133 20.2878 37.9555 19.6928 37.9555 18.9523V18.6747H35.4168V19.0317C35.4168 19.9837 35.6416 20.81 36.0912 21.5108C36.554 22.1984 37.1886 22.7273 37.9952 23.0975Z" fill="#3E3E3E"/>
<path fill-rule="evenodd" clip-rule="evenodd" d="M55.1391 10.0273C54.478 9.67032 53.7111 9.49182 52.8384 9.49182H47.1264V23.3752H49.7444V18.2978H52.8384C53.6846 18.2978 54.4383 18.1259 55.0994 17.7822C55.7737 17.4252 56.3026 16.9293 56.6861 16.2947C57.0827 15.6468 57.2811 14.8931 57.2811 14.0337V13.756C57.2811 12.8833 57.0893 12.1297 56.7059 11.495C56.3357 10.8603 55.8134 10.3711 55.1391 10.0273ZM54.0879 15.4022C53.7045 15.7459 53.202 15.9178 52.5806 15.9178H49.7444V11.8718H52.5806C53.202 11.8718 53.7045 12.0437 54.0879 12.3875C54.4714 12.7313 54.6631 13.2007 54.6631 13.7957V13.994C54.6631 14.589 54.4714 15.0584 54.0879 15.4022Z" fill="#3E3E3E"/>
<path fill-rule="evenodd" clip-rule="evenodd" d="M62.632 23.6528C61.6536 23.6528 60.7743 23.4545 59.9942 23.0578C59.2141 22.6612 58.5993 22.086 58.1497 21.3323C57.7002 20.5787 57.4754 19.6729 57.4754 18.6152V18.2978C57.4754 17.24 57.7002 16.3343 58.1497 15.5807C58.5993 14.827 59.2141 14.2518 59.9942 13.8552C60.7743 13.4585 61.6536 13.2602 62.632 13.2602C63.6105 13.2602 64.4898 13.4585 65.2699 13.8552C66.05 14.2518 66.6648 14.827 67.1144 15.5807C67.5639 16.3343 67.7887 17.24 67.7887 18.2978V18.6152C67.7887 19.6729 67.5639 20.5787 67.1144 21.3323C66.6648 22.086 66.05 22.6612 65.2699 23.0578C64.4898 23.4545 63.6105 23.6528 62.632 23.6528ZM62.632 21.4315C63.3989 21.4315 64.0336 21.1869 64.536 20.6977C65.0385 20.1952 65.2897 19.4812 65.2897 18.5557V18.3573C65.2897 17.4318 65.0385 16.7244 64.536 16.2352C64.0468 15.7327 63.4122 15.4815 62.632 15.4815C61.8652 15.4815 61.2305 15.7327 60.728 16.2352C60.2256 16.7244 59.9744 17.4318 59.9744 18.3573V18.5557C59.9744 19.4812 60.2256 20.1952 60.728 20.6977C61.2305 21.1869 61.8652 21.4315 62.632 21.4315Z" fill="#3E3E3E"/>
<path d="M72.6341 13.7758C72.3035 13.9609 72.0655 14.2518 71.9201 14.6485H71.5631V13.5378H69.1038V23.3752H71.6028V17.7822C71.6028 17.0814 71.8077 16.5657 72.2176 16.2352C72.6275 15.8914 73.1498 15.7195 73.7844 15.7195H75.0141V15.7181H77.5624V21.1538C77.5624 21.8282 77.7607 22.3703 78.1574 22.7802C78.5672 23.1768 79.0961 23.3752 79.744 23.3752H82.5207V21.3125H80.6167C80.2465 21.3125 80.0614 21.1142 80.0614 20.7175V15.7181H82.7587V13.501H80.0614V10.4835H77.5624V13.501H75.0141V13.4982H73.8241C73.3745 13.4982 72.9779 13.5907 72.6341 13.7758Z" fill="#3E3E3E"/>
<path fill-rule="evenodd" clip-rule="evenodd" d="M85.1993 23.2958C85.7546 23.5338 86.3827 23.6528 87.0834 23.6528C87.771 23.6528 88.3131 23.5537 88.7098 23.3553C89.1064 23.157 89.3973 22.9322 89.5824 22.681C89.7676 22.4165 89.8866 22.205 89.9394 22.0463H90.3163V22.0662C90.3163 22.4628 90.4749 22.7802 90.7923 23.0182C91.1096 23.2562 91.5129 23.3752 92.0021 23.3752H93.6681V21.3125H92.8748C92.5046 21.3125 92.3194 21.1142 92.3194 20.7175V17.0483C92.3194 15.8187 91.9426 14.8799 91.1889 14.232C90.4353 13.5841 89.4106 13.2602 88.1148 13.2602C87.2686 13.2602 86.5479 13.3924 85.9529 13.6568C85.3712 13.908 84.9018 14.2452 84.5448 14.6683C84.201 15.0782 83.9498 15.5344 83.7911 16.0368L86.0918 16.8103C86.1843 16.3608 86.3827 15.9972 86.6868 15.7195C86.9909 15.4286 87.4537 15.2832 88.0751 15.2832C88.7098 15.2832 89.1726 15.4352 89.4634 15.7393C89.7543 16.0302 89.8998 16.407 89.8998 16.8698V17.4252H87.2024C86.462 17.4252 85.8009 17.5442 85.2191 17.7822C84.6506 18.0069 84.201 18.3507 83.8704 18.8135C83.5531 19.263 83.3944 19.825 83.3944 20.4993C83.3944 21.1737 83.5531 21.7488 83.8704 22.2248C84.201 22.6876 84.6439 23.0446 85.1993 23.2958ZM89.2254 21.0547C88.7891 21.4381 88.2206 21.6298 87.5198 21.6298C86.9909 21.6298 86.5876 21.5174 86.3099 21.2927C86.0323 21.0679 85.8934 20.777 85.8934 20.42C85.8934 20.063 86.0257 19.7853 86.2901 19.587C86.5546 19.3887 86.9182 19.2895 87.3809 19.2895H89.8998V19.4878C89.8998 20.1357 89.675 20.658 89.2254 21.0547Z" fill="#3E3E3E"/>
<path d="M99.7123 22.8198C100.532 23.3752 101.583 23.6528 102.866 23.6528C104.122 23.6528 105.12 23.3752 105.861 22.8198C106.614 22.2513 106.991 21.4513 106.991 20.42C106.991 19.7324 106.813 19.1903 106.456 18.7937C106.112 18.3838 105.636 18.073 105.028 17.8615C104.433 17.6367 103.765 17.4582 103.024 17.326L102.469 17.2268C102.02 17.1475 101.663 17.0351 101.398 16.8897C101.134 16.731 101.001 16.493 101.001 16.1757C101.001 15.8848 101.127 15.66 101.378 15.5013C101.63 15.3294 101.993 15.2435 102.469 15.2435C102.945 15.2435 103.342 15.3493 103.659 15.5608C103.99 15.7724 104.208 16.1294 104.314 16.6318L106.634 15.9178C106.409 15.1245 105.933 14.4832 105.206 13.994C104.479 13.5048 103.567 13.2602 102.469 13.2602C101.306 13.2602 100.367 13.5246 99.6528 14.0535C98.9388 14.5692 98.5818 15.3162 98.5818 16.2947C98.5818 16.9425 98.7537 17.4714 99.0975 17.8813C99.4413 18.2912 99.8974 18.6152 100.466 18.8532C101.035 19.0779 101.663 19.2564 102.35 19.3887L102.905 19.4878C103.487 19.5936 103.91 19.7324 104.175 19.9043C104.439 20.063 104.571 20.2944 104.571 20.5985C104.571 20.9026 104.433 21.1604 104.155 21.372C103.877 21.5703 103.448 21.6695 102.866 21.6695C102.482 21.6695 102.125 21.6166 101.795 21.5108C101.477 21.3918 101.206 21.2001 100.982 20.9357C100.77 20.6712 100.618 20.3076 100.525 19.8448L98.2248 20.4398C98.3967 21.4712 98.8925 22.2645 99.7123 22.8198Z" fill="#3E3E3E"/>
<path d="M94.5036 23.3752V9.49182H97.0026V23.3752H94.5036Z" fill="#3E3E3E"/>
</svg>
