<svg width="111" height="33" viewBox="0 0 111 33" fill="none" xmlns="http://www.w3.org/2000/svg">
<path d="M21 7.42487H0L3 13.4748H21C24.3137 13.4748 27 16.1835 27 19.5248C27 22.8661 24.3137 25.5748 21 25.5748C25.9706 25.5748 30 21.5118 30 16.4998C30 11.4879 25.9706 7.42487 21 7.42487Z" fill="#099250"/>
<path opacity="0.3" d="M14.1644 23.8937C13.1674 21.883 14.6302 19.5249 16.8745 19.5249H20.9981C22.6549 19.5249 23.998 20.8792 23.998 22.5499C23.998 24.2205 22.6549 25.5749 20.9981 25.5749H16.8745C15.7251 25.5749 14.675 24.9235 14.1644 23.8937Z" fill="#099250"/>
<path opacity="0.6" d="M21.002 13.4751H6.00195L9.00195 19.5251H21.002C22.6588 19.5251 24.002 20.8794 24.002 22.55C24.002 24.2207 22.6588 25.575 21.002 25.575C24.3157 25.575 27.002 22.8664 27.002 19.5251C27.002 16.1838 24.3157 13.4751 21.002 13.4751Z" fill="#099250"/>
<path d="M95.8891 11.8638C95.2264 11.8638 94.7421 11.7428 94.4362 11.5006C94.1431 11.2457 93.9965 10.8506 93.9965 10.3153C93.9965 9.76728 94.1431 9.37219 94.4362 9.13003C94.7421 8.87513 95.2264 8.74768 95.8891 8.74768C96.5391 8.74768 97.0171 8.87513 97.323 9.13003C97.6288 9.37219 97.7818 9.76728 97.7818 10.3153C97.7818 10.8506 97.6288 11.2457 97.323 11.5006C97.0171 11.7428 96.5391 11.8638 95.8891 11.8638Z" fill="#3E3E3E"/>
<path fill-rule="evenodd" clip-rule="evenodd" d="M43.4308 10.4109C42.7044 10.0795 41.825 9.91385 40.7926 9.91385H35V22.5314H38.2882V18.3256H40.7926C41.825 18.3256 42.7044 18.1599 43.4308 17.8285C44.1573 17.4971 44.7117 17.0192 45.0941 16.3947C45.4764 15.7702 45.6676 15.0119 45.6676 14.1197C45.6676 13.2276 45.4764 12.4692 45.0941 11.8447C44.7117 11.2202 44.1573 10.7423 43.4308 10.4109ZM41.825 15.4388C41.4808 15.7192 40.9647 15.8594 40.2764 15.8594H38.2882V12.38H40.2764C40.9647 12.38 41.4808 12.5266 41.825 12.8197C42.1818 13.1001 42.3602 13.5334 42.3602 14.1197C42.3602 14.706 42.1818 15.1457 41.825 15.4388Z" fill="#3E3E3E"/>
<path fill-rule="evenodd" clip-rule="evenodd" d="M48.58 22.1299C49.3575 22.525 50.2751 22.7226 51.3329 22.7226C51.9957 22.7226 52.6266 22.627 53.2256 22.4358C53.8373 22.2446 54.3599 21.9643 54.7932 21.5947C55.2393 21.2123 55.5515 20.7471 55.73 20.1991L53.13 19.3388C52.9898 19.6829 52.7731 19.9505 52.48 20.1417C52.1996 20.3329 51.8172 20.4285 51.3329 20.4285C50.8996 20.4285 50.53 20.3456 50.2241 20.18C49.9182 20.0015 49.6825 19.7211 49.5168 19.3388C49.4247 19.1193 49.3582 18.8644 49.3173 18.5741H55.8447C55.8702 18.4211 55.8893 18.23 55.902 18.0006C55.9148 17.7711 55.9211 17.5417 55.9211 17.3123C55.9211 16.4329 55.7363 15.6555 55.3667 14.98C54.9971 14.2918 54.4555 13.7565 53.7417 13.3741C53.0408 12.979 52.1868 12.7815 51.18 12.7815C50.1986 12.7815 49.3256 12.979 48.5609 13.3741C47.8089 13.7692 47.2227 14.3364 46.8021 15.0756C46.3815 15.8148 46.1712 16.7069 46.1712 17.752C46.1712 18.7971 46.3815 19.6893 46.8021 20.4285C47.2227 21.1677 47.8153 21.7348 48.58 22.1299ZM49.3361 16.8344C49.3705 16.6154 49.418 16.4179 49.4785 16.2417C49.6315 15.8339 49.8481 15.5344 50.1285 15.3432C50.4217 15.152 50.7722 15.0565 51.18 15.0565C51.7535 15.0565 52.1741 15.2604 52.4417 15.6682C52.6447 15.9634 52.7742 16.3522 52.8303 16.8344H49.3361Z" fill="#3E3E3E"/>
<path d="M60.7025 16.4903C60.5113 16.8089 60.4157 17.2167 60.4157 17.7138V22.5314H57.1657V12.9727H60.0333L60.1672 15.0373C60.4093 14.3236 60.7662 13.7692 61.2378 13.3741C61.7221 12.979 62.3338 12.7815 63.073 12.7815C63.3152 12.7815 63.5191 12.8006 63.6848 12.8388C63.8632 12.8771 64.0034 12.928 64.1054 12.9918L63.7804 15.6682C63.6529 15.6172 63.4872 15.579 63.2833 15.5535C63.0921 15.5153 62.8564 15.4962 62.576 15.4962C62.1936 15.4962 61.8368 15.579 61.5054 15.7447C61.174 15.9104 60.9064 16.1589 60.7025 16.4903Z" fill="#3E3E3E"/>
<path fill-rule="evenodd" clip-rule="evenodd" d="M66.6065 22.1299C67.3839 22.525 68.3016 22.7226 69.3594 22.7226C70.0221 22.7226 70.653 22.627 71.252 22.4358C71.8638 22.2446 72.3863 21.9643 72.8197 21.5947C73.2658 21.2123 73.578 20.7471 73.7564 20.1991L71.1565 19.3388C71.0163 19.6829 70.7996 19.9505 70.5065 20.1417C70.2261 20.3329 69.8437 20.4285 69.3594 20.4285C68.9261 20.4285 68.5565 20.3456 68.2506 20.18C67.9447 20.0015 67.7089 19.7211 67.5432 19.3388C67.4512 19.1193 67.3847 18.8644 67.3438 18.5741H73.8711C73.8966 18.4211 73.9158 18.23 73.9285 18.0006C73.9412 17.7711 73.9476 17.5417 73.9476 17.3123C73.9476 16.4329 73.7628 15.6555 73.3932 14.98C73.0236 14.2918 72.4819 13.7565 71.7682 13.3741C71.0672 12.979 70.2133 12.7815 69.2065 12.7815C68.2251 12.7815 67.3521 12.979 66.5874 13.3741C65.8354 13.7692 65.2491 14.3364 64.8286 15.0756C64.408 15.8148 64.1977 16.7069 64.1977 17.752C64.1977 18.7971 64.408 19.6893 64.8286 20.4285C65.2491 21.1677 65.8418 21.7348 66.6065 22.1299ZM67.3626 16.8344C67.397 16.6154 67.4445 16.4179 67.505 16.2417C67.6579 15.8339 67.8746 15.5344 68.155 15.3432C68.4481 15.152 68.7986 15.0565 69.2065 15.0565C69.78 15.0565 70.2006 15.2604 70.4682 15.6682C70.6712 15.9634 70.8007 16.3522 70.8567 16.8344H67.3626Z" fill="#3E3E3E"/>
<path fill-rule="evenodd" clip-rule="evenodd" d="M79.6848 26.6417C78.8564 26.6417 78.0981 26.5397 77.4098 26.3358C76.7216 26.1446 76.1481 25.8005 75.6892 25.3035C75.2432 24.8191 74.9564 24.1373 74.829 23.2579L77.9642 22.8564C78.0152 23.4172 78.1936 23.8441 78.4995 24.1373C78.8181 24.4432 79.277 24.5961 79.876 24.5961C80.4368 24.5961 80.8637 24.4177 81.1569 24.0608C81.4627 23.704 81.6157 23.2005 81.6157 22.5505V20.6961C81.3353 21.1677 80.9466 21.55 80.4495 21.8432C79.9652 22.1236 79.3917 22.2638 78.7289 22.2638C77.926 22.2638 77.225 22.079 76.626 21.7094C76.0397 21.3398 75.5873 20.8045 75.2687 20.1035C74.95 19.3898 74.7907 18.5422 74.7907 17.5609C74.7907 16.554 74.9628 15.6937 75.3069 14.98C75.651 14.2663 76.1162 13.7246 76.7025 13.355C77.3015 12.9727 77.977 12.7815 78.7289 12.7815C79.5701 12.7815 80.252 12.9918 80.7745 13.4124C81.2971 13.8202 81.6667 14.3555 81.8833 15.0182L81.9598 12.9727H84.8848V21.7667C84.8848 22.952 84.6745 23.8951 84.2539 24.5961C83.8333 25.3098 83.2343 25.826 82.4569 26.1446C81.6794 26.476 80.7554 26.6417 79.6848 26.6417ZM79.8569 19.8932C80.3922 19.8932 80.8191 19.6956 81.1377 19.3006C81.4564 18.9055 81.6157 18.3128 81.6157 17.5226C81.6157 16.7579 81.4627 16.178 81.1569 15.7829C80.851 15.3751 80.4177 15.1712 79.8569 15.1712C79.4873 15.1712 79.1686 15.2604 78.901 15.4388C78.6333 15.6172 78.4231 15.8785 78.2701 16.2226C78.1299 16.5667 78.0598 17.0001 78.0598 17.5226C78.0598 18.3383 78.2191 18.9373 78.5378 19.3197C78.8564 19.702 79.2961 19.8932 79.8569 19.8932Z" fill="#3E3E3E"/>
<path d="M89.6246 15.0373L89.4908 12.9727H86.6231V22.5314H89.8731V17.7138C89.8731 17.2167 89.9687 16.8089 90.1599 16.4903C90.3638 16.1589 90.6314 15.9104 90.9628 15.7447C91.2942 15.579 91.651 15.4962 92.0334 15.4962C92.3138 15.4962 92.5496 15.5153 92.7407 15.5535C92.9447 15.579 93.1103 15.6172 93.2378 15.6682L93.5628 12.9918C93.4608 12.928 93.3206 12.8771 93.1422 12.8388C92.9765 12.8006 92.7726 12.7815 92.5304 12.7815C91.7912 12.7815 91.1795 12.979 90.6952 13.3741C90.2236 13.7692 89.8667 14.3236 89.6246 15.0373Z" fill="#3E3E3E"/>
<path d="M107.245 13.1638C106.761 12.9089 106.187 12.7815 105.525 12.7815C104.785 12.7815 104.135 12.9535 103.575 13.2977C103.014 13.629 102.574 14.1324 102.256 14.8079L102.25 14.8205L102.16 12.9727H99.2541V22.5314H102.504V17.4844C102.504 16.9618 102.581 16.5349 102.734 16.2035C102.886 15.8721 103.097 15.6364 103.364 15.4962C103.632 15.3432 103.919 15.2668 104.225 15.2668C104.633 15.2668 104.958 15.3942 105.2 15.6491C105.455 15.904 105.582 16.3756 105.582 17.0638V21.8241C105.582 22.4103 105.703 22.901 105.945 23.2961C106.187 23.6912 106.519 23.9843 106.939 24.1755C107.373 24.3794 107.863 24.4814 108.411 24.4814C108.858 24.4814 109.208 24.4432 109.463 24.3667C109.731 24.303 110.024 24.1946 110.342 24.0417L110.572 22.0917C110.419 22.1682 110.272 22.2192 110.132 22.2446C110.005 22.2701 109.845 22.2829 109.654 22.2829C109.425 22.2829 109.227 22.2192 109.061 22.0917C108.908 21.9515 108.832 21.7221 108.832 21.4035V16.1653C108.832 15.4133 108.692 14.7888 108.411 14.2918C108.131 13.7947 107.742 13.4187 107.245 13.1638Z" fill="#3E3E3E"/>
<path d="M97.5141 12.9727V22.5314H94.2642V12.9727H97.5141Z" fill="#3E3E3E"/>
</svg>
