<svg width="30" height="30" viewBox="0 0 30 30" fill="none" xmlns="http://www.w3.org/2000/svg">
<g id="earth">
<path id="Vector" d="M17.9772 1.896C18.0651 2.04336 18.1374 2.18686 18.1946 2.32398C18.5898 3.07686 18.732 3.94773 18.5107 4.76273C18.2776 5.62106 17.6621 6.33052 16.7226 6.70277C16.306 6.86782 16.1652 7.02616 16.104 7.1188C16.0282 7.23305 15.9847 7.37595 15.928 7.68772L15.9125 7.77452C15.8641 8.05002 15.7899 8.47333 15.59 8.87658C15.3444 9.37221 14.9421 9.79516 14.3161 10.1259C12.599 11.0331 10.2811 10.6557 8.19915 8.45585C7.19167 7.39131 6.81456 7.09118 6.13842 7.01982C6.1258 7.0185 6.1132 7.01691 6.10064 7.01506C5.67823 6.95305 4.82694 7.00695 3.86842 7.47327C2.41322 9.62087 1.5625 12.2127 1.5625 15.0023C1.5625 22.3143 7.40255 28.2621 14.6726 28.4359C14.5791 28.3665 14.4954 28.3014 14.4221 28.2419C13.6562 27.668 13.2255 26.9519 13.181 26.1231C13.1394 25.3501 13.446 24.6378 13.7808 24.0621C14.2689 23.2228 14.4171 22.9514 14.4939 22.6435C14.5754 22.3166 14.5821 21.9241 14.5821 20.808C14.5821 20.1926 14.672 19.5724 14.9475 19.018C15.234 18.4415 15.6925 17.9954 16.3169 17.7068C17.485 17.167 19.1816 17.2044 21.4328 17.6546C21.6912 17.7063 21.9631 17.6673 22.321 17.52C22.6184 17.3978 22.9025 17.235 23.2524 17.0345C23.3616 16.972 23.4772 16.9058 23.6016 16.836C24.5811 16.2864 25.92 15.6329 27.6312 16.2343C27.6722 16.2486 27.712 16.2659 27.7506 16.2858C27.9129 16.3695 28.1128 16.4931 28.3365 16.657C28.4033 16.1145 28.4375 15.5623 28.4375 15.0023C28.4375 8.6035 23.9657 3.251 17.9772 1.896Z" fill="white"/>
<path id="Vector_2" d="M14.9392 1.56494C15.9017 2.11218 16.3535 2.76355 16.4721 3.06523C16.4861 3.10099 16.5024 3.13584 16.5207 3.16962C16.744 3.58088 16.7811 3.97705 16.7012 4.27134C16.6282 4.5401 16.441 4.79753 16.0319 4.9596C15.3485 5.23038 14.8612 5.5994 14.5406 6.08359C14.2344 6.54617 14.142 7.02958 14.0834 7.3515L14.0744 7.40048C14.0139 7.73333 13.9847 7.89313 13.91 8.04395C13.8551 8.15479 13.7514 8.30367 13.4402 8.46803C12.6582 8.88115 11.2276 8.92805 9.56096 7.16699C8.59808 6.14959 7.78923 5.31504 6.35374 5.15717C6.21337 5.13739 6.05933 5.12475 5.89371 5.12083C8.27342 2.92683 11.45 1.58042 14.9392 1.56494Z" fill="white"/>
<path id="Vector_3" d="M27.9055 18.7577C27.5028 18.353 27.1459 18.0964 26.9443 17.981C26.0828 17.7029 25.4008 17.9764 24.5191 18.4711C24.4344 18.5187 24.3446 18.5702 24.2513 18.6238C23.8834 18.8352 23.4564 19.0804 23.0343 19.2541C22.4725 19.4851 21.8094 19.6419 21.065 19.493C18.8518 19.0504 17.6839 19.1405 17.1034 19.4088C16.8535 19.5242 16.7168 19.6709 16.6266 19.8524C16.5254 20.0559 16.4571 20.3588 16.4571 20.8079V20.9332C16.4574 21.8767 16.4576 22.5177 16.3133 23.0969C16.1644 23.6939 15.8685 24.2024 15.457 24.9094L15.4016 25.0046C15.1325 25.4674 15.041 25.7936 15.0533 26.0224C15.0623 26.1889 15.1308 26.4332 15.557 26.7492C15.5693 26.7582 15.5813 26.7676 15.593 26.7772C16.002 27.1123 16.8615 27.6843 17.897 28.1267C22.7031 27.0707 26.5445 23.4421 27.9055 18.7577Z" fill="white"/>
</g>
</svg>
