<svg width="744" height="152" viewBox="0 0 744 152" fill="none" xmlns="http://www.w3.org/2000/svg">
<path d="M706.438 124.22C700.128 124.22 694.413 122.757 689.292 119.83C684.262 116.813 680.284 112.606 677.358 107.211C674.432 101.724 672.969 95.3687 672.969 88.1445C672.969 80.646 674.432 74.1991 677.358 68.8038C680.376 63.4085 684.445 59.2477 689.566 56.3215C694.687 53.3038 700.403 51.7949 706.713 51.7949C713.297 51.7949 719.104 53.3038 724.133 56.3215C729.163 59.2477 733.141 63.4085 736.067 68.8038C738.993 74.1991 740.457 80.646 740.457 88.1445C740.457 95.3687 738.948 101.724 735.93 107.211C733.004 112.606 728.98 116.813 723.859 119.83C718.829 122.757 713.022 124.22 706.438 124.22ZM706.575 115.99C710.873 115.99 714.806 114.938 718.372 112.835C722.03 110.732 724.956 107.622 727.151 103.507C729.437 99.3009 730.58 94.1342 730.58 88.0074C730.58 81.7891 729.483 76.6224 727.288 72.5073C725.093 68.3923 722.167 65.3289 718.509 63.3171C714.943 61.2138 711.011 60.1622 706.713 60.1622C702.598 60.1622 698.711 61.2138 695.053 63.3171C691.395 65.4203 688.423 68.5295 686.137 72.6445C683.942 76.6681 682.845 81.7891 682.845 88.0074C682.845 94.1342 683.942 99.3009 686.137 103.507C688.332 107.622 691.212 110.732 694.779 112.835C698.437 114.938 702.369 115.99 706.575 115.99Z" fill="white"/>
<path d="M649.297 122.573C645.182 122.573 641.616 121.933 638.598 120.653C635.58 119.373 633.248 117.224 631.602 114.206C630.048 111.097 629.27 106.936 629.27 101.724V63.1795H617.199V53.4406H629.27L630.779 36.7061H640.793V53.4406H660.819V63.1795H640.793V101.724C640.793 106.022 641.661 108.948 643.399 110.503C645.136 111.966 648.2 112.697 652.589 112.697H659.996V122.573H649.297Z" fill="white"/>
<path d="M573.701 124.22C567.117 124.22 561.265 122.711 556.144 119.693C551.023 116.676 546.999 112.469 544.073 107.074C541.238 101.678 539.82 95.4145 539.82 88.2817C539.82 80.9661 541.238 74.6106 544.073 69.2153C546.999 63.7286 551.023 59.4763 556.144 56.4586C561.265 53.3495 567.209 51.7949 573.976 51.7949C580.743 51.7949 586.55 53.3038 591.396 56.3215C596.243 59.3392 599.992 63.3628 602.644 68.3923C605.296 73.3304 606.622 78.8171 606.622 84.8525C606.622 85.767 606.577 86.7729 606.485 87.8702C606.485 88.8761 606.439 90.0192 606.348 91.2994H549.834V81.5605H592.905C592.631 75.7994 590.711 71.3186 587.144 68.118C583.578 64.8259 579.143 63.1799 573.839 63.1799C570.089 63.1799 566.66 64.0486 563.551 65.7861C560.442 67.4321 557.927 69.9011 556.006 73.1932C554.177 76.3938 553.263 80.4631 553.263 85.4012V89.2419C553.263 94.3628 554.177 98.7065 556.006 102.273C557.927 105.748 560.442 108.4 563.551 110.229C566.66 111.966 570.044 112.835 573.701 112.835C578.091 112.835 581.703 111.875 584.538 109.954C587.373 108.034 589.476 105.428 590.848 102.136H604.565C603.376 106.342 601.364 110.137 598.529 113.521C595.694 116.813 592.174 119.419 587.967 121.339C583.852 123.26 579.097 124.22 573.701 124.22Z" fill="white"/>
<path d="M510.655 122.575L480.066 84.7162L507.5 53.4418H527.115L492.96 91.4375V78.6808L531.23 122.575H510.655ZM466.074 122.575V23.8135H482.535V122.575H466.074Z" fill="white"/>
<path d="M412.414 122.575V54.5396H428.326L429.972 68.9423H430.383C432.304 64.5529 434.453 61.2151 436.83 58.929C439.299 56.6428 442.043 55.0882 445.061 54.2652C448.17 53.3508 451.645 52.8936 455.486 52.8936V72.5086H450.547C447.438 72.5086 444.649 72.8744 442.18 73.606C439.802 74.2461 437.745 75.3434 436.007 76.898C434.361 78.3611 433.081 80.3272 432.167 82.7963C431.344 85.1738 430.932 88.1458 430.932 91.7122V122.575H412.414Z" fill="white"/>
<path d="M357.571 124.22C351.902 124.22 347.146 123.305 343.306 121.476C339.556 119.556 336.767 117.041 334.938 113.932C333.201 110.732 332.332 107.211 332.332 103.37C332.332 99.2552 333.384 95.5974 335.487 92.3968C337.59 89.1962 340.837 86.6814 345.226 84.8525C349.615 83.0236 355.102 82.1091 361.686 82.1091H378.696C378.696 78.8171 378.238 76.1194 377.324 74.0162C376.501 71.8215 375.129 70.1755 373.209 69.0781C371.38 67.9808 368.911 67.4321 365.802 67.4321C362.418 67.4321 359.537 68.1637 357.16 69.6268C354.874 71.0899 353.456 73.2846 352.908 76.2109H334.252C334.801 71.2728 336.447 67.0206 339.191 63.4542C341.934 59.7964 345.592 56.9616 350.164 54.9498C354.828 52.8465 360.086 51.7949 365.939 51.7949C372.432 51.7949 378.055 52.8923 382.811 55.087C387.657 57.2817 391.361 60.4365 393.922 64.5516C396.574 68.6666 397.899 73.7419 397.899 79.7773V122.574H381.713L379.519 112.149C378.604 113.978 377.415 115.624 375.952 117.087C374.581 118.55 372.98 119.83 371.151 120.928C369.322 121.934 367.265 122.711 364.979 123.26C362.784 123.9 360.315 124.22 357.571 124.22ZM362.235 109.406C364.521 109.406 366.579 109.04 368.408 108.308C370.237 107.485 371.791 106.342 373.072 104.879C374.352 103.416 375.404 101.77 376.227 99.941C377.05 98.0207 377.598 95.9631 377.873 93.7684V93.6313H364.018C361.366 93.6313 359.172 93.9971 357.434 94.7286C355.788 95.3687 354.554 96.3289 353.731 97.6092C352.908 98.798 352.496 100.17 352.496 101.724C352.496 103.37 352.908 104.788 353.731 105.976C354.554 107.165 355.697 108.034 357.16 108.583C358.623 109.131 360.315 109.406 362.235 109.406Z" fill="white"/>
<path d="M211.016 122.575V26.5576H235.706L263.689 84.3055L291.397 26.5576H315.951V122.575H295.375V61.2612L271.782 109.133H255.322L231.591 61.2612V122.575H211.016Z" fill="white"/>
<path d="M61.146 67.3149L5.26172 34.293V100.337L61.146 130.819V67.3149Z" fill="#3291F6"/>
<path d="M172.915 100.337V34.293L117.031 67.3149V133.359L172.915 100.337Z" fill="#3248F6"/>
<path d="M33.2031 82.5547V19.0508L89.0874 52.0728L144.972 19.0508V82.5547L89.0874 115.577L33.2031 82.5547Z" fill="#32D9F6"/>
</svg>
