<svg width="16" height="14" viewBox="0 0 16 14" fill="none" xmlns="http://www.w3.org/2000/svg">
<path id="Vector" d="M8.26304 11.4811C8.10191 11.3815 7.89832 11.3815 7.73719 11.4811L4.11008 13.7235C3.72751 13.9601 3.25155 13.6106 3.36265 13.1747L4.40127 9.1002C4.44912 8.91246 4.38421 8.71397 4.23467 8.59078L0.973236 5.90404C0.623754 5.61614 0.806358 5.04908 1.25817 5.01921L5.50651 4.73837C5.69727 4.72576 5.86414 4.60548 5.93642 4.42849L7.5361 0.51105C7.70557 0.096034 8.29344 0.0965331 8.46221 0.511836L10.0535 4.4277C10.1256 4.60512 10.2927 4.72577 10.4838 4.73838L14.7418 5.01935C15.1936 5.04916 15.3763 5.61626 15.0268 5.90418L11.7655 8.59078C11.616 8.71397 11.5511 8.91246 11.5989 9.1002L12.6375 13.1747C12.7486 13.6106 12.2727 13.9601 11.8901 13.7235L8.26304 11.4811Z" fill="#E8B508"/>
</svg>
