<svg width="156" height="32" viewBox="0 0 156 32" fill="none" xmlns="http://www.w3.org/2000/svg">
<path d="M148.217 26.0814C146.892 26.0814 145.692 25.7742 144.617 25.1598C143.561 24.5262 142.725 23.643 142.111 22.5102C141.497 21.3582 141.189 20.0238 141.189 18.507C141.189 16.9326 141.497 15.579 142.111 14.4462C142.745 13.3134 143.599 12.4398 144.674 11.8254C145.749 11.1918 146.949 10.875 148.274 10.875C149.657 10.875 150.876 11.1918 151.932 11.8254C152.988 12.4398 153.823 13.3134 154.437 14.4462C155.052 15.579 155.359 16.9326 155.359 18.507C155.359 20.0238 155.042 21.3582 154.409 22.5102C153.794 23.643 152.949 24.5262 151.874 25.1598C150.818 25.7742 149.599 26.0814 148.217 26.0814ZM148.245 24.3534C149.148 24.3534 149.973 24.1326 150.722 23.691C151.49 23.2494 152.105 22.5966 152.565 21.7326C153.045 20.8494 153.285 19.7646 153.285 18.4782C153.285 17.1726 153.055 16.0878 152.594 15.2238C152.133 14.3598 151.519 13.7166 150.751 13.2942C150.002 12.8526 149.177 12.6318 148.274 12.6318C147.41 12.6318 146.594 12.8526 145.826 13.2942C145.058 13.7358 144.434 14.3886 143.954 15.2526C143.493 16.0974 143.263 17.1726 143.263 18.4782C143.263 19.7646 143.493 20.8494 143.954 21.7326C144.415 22.5966 145.02 23.2494 145.769 23.691C146.537 24.1326 147.362 24.3534 148.245 24.3534Z" fill="white"/>
<path d="M136.22 25.736C135.356 25.736 134.607 25.6016 133.973 25.3328C133.34 25.064 132.85 24.6128 132.504 23.9792C132.178 23.3264 132.015 22.4528 132.015 21.3584V13.2656H129.48V11.2208H132.015L132.332 7.70721H134.434V11.2208H138.639V13.2656H134.434V21.3584C134.434 22.2608 134.616 22.8752 134.981 23.2016C135.346 23.5088 135.989 23.6624 136.911 23.6624H138.466V25.736H136.22Z" fill="white"/>
<path d="M120.348 26.0814C118.966 26.0814 117.737 25.7646 116.662 25.131C115.586 24.4974 114.742 23.6142 114.127 22.4814C113.532 21.3486 113.234 20.0334 113.234 18.5358C113.234 16.9998 113.532 15.6654 114.127 14.5326C114.742 13.3806 115.586 12.4878 116.662 11.8542C117.737 11.2014 118.985 10.875 120.406 10.875C121.826 10.875 123.046 11.1918 124.063 11.8254C125.081 12.459 125.868 13.3038 126.425 14.3598C126.982 15.3966 127.26 16.5486 127.26 17.8158C127.26 18.0078 127.25 18.219 127.231 18.4494C127.231 18.6606 127.222 18.9006 127.202 19.1694H115.337V17.1246H124.38C124.322 15.915 123.919 14.9742 123.17 14.3022C122.422 13.611 121.49 13.2654 120.377 13.2654C119.59 13.2654 118.87 13.4478 118.217 13.8126C117.564 14.1582 117.036 14.6766 116.633 15.3678C116.249 16.0398 116.057 16.8942 116.057 17.931V18.7374C116.057 19.8126 116.249 20.7246 116.633 21.4734C117.036 22.203 117.564 22.7598 118.217 23.1438C118.87 23.5086 119.58 23.691 120.348 23.691C121.27 23.691 122.028 23.4894 122.623 23.0862C123.218 22.683 123.66 22.1358 123.948 21.4446H126.828C126.578 22.3278 126.156 23.1246 125.561 23.835C124.966 24.5262 124.226 25.0734 123.343 25.4766C122.479 25.8798 121.481 26.0814 120.348 26.0814Z" fill="white"/>
<path d="M107.11 25.736L100.688 17.7872L106.448 11.2208H110.566L103.395 19.1984V16.52L111.43 25.736H107.11ZM97.75 25.736V5H101.206V25.736H97.75Z" fill="white"/>
<path d="M86.4844 25.736V11.4512H89.8252L90.1708 14.4752H90.2572C90.6604 13.5536 91.1116 12.8528 91.6108 12.3728C92.1292 11.8928 92.7052 11.5664 93.3388 11.3936C93.9916 11.2016 94.7212 11.1056 95.5276 11.1056V15.224H94.4908C93.838 15.224 93.2524 15.3008 92.734 15.4544C92.2348 15.5888 91.8028 15.8192 91.438 16.1456C91.0924 16.4528 90.8236 16.8656 90.6316 17.384C90.4588 17.8832 90.3724 18.5072 90.3724 19.256V25.736H86.4844Z" fill="white"/>
<path d="M74.9691 26.0814C73.7787 26.0814 72.7803 25.8894 71.9739 25.5054C71.1867 25.1022 70.6011 24.5742 70.2171 23.9214C69.8523 23.2494 69.6699 22.5102 69.6699 21.7038C69.6699 20.8398 69.8907 20.0718 70.3323 19.3998C70.7739 18.7278 71.4555 18.1998 72.3771 17.8158C73.2987 17.4318 74.4507 17.2398 75.8331 17.2398H79.4043C79.4043 16.5486 79.3083 15.9822 79.1163 15.5406C78.9435 15.0798 78.6555 14.7342 78.2523 14.5038C77.8683 14.2734 77.3499 14.1582 76.6971 14.1582C75.9867 14.1582 75.3819 14.3118 74.8827 14.619C74.4027 14.9262 74.1051 15.387 73.9899 16.0014H70.0731C70.1883 14.9646 70.5339 14.0718 71.1099 13.323C71.6859 12.555 72.4539 11.9598 73.4139 11.5374C74.3931 11.0958 75.4971 10.875 76.7259 10.875C78.0891 10.875 79.2699 11.1054 80.2683 11.5662C81.2859 12.027 82.0635 12.6894 82.6011 13.5534C83.1579 14.4174 83.4363 15.483 83.4363 16.7502V25.7358H80.0379L79.5771 23.547C79.3851 23.931 79.1355 24.2766 78.8283 24.5838C78.5403 24.891 78.2043 25.1598 77.8203 25.3902C77.4363 25.6014 77.0043 25.7646 76.5243 25.8798C76.0635 26.0142 75.5451 26.0814 74.9691 26.0814ZM75.9483 22.971C76.4283 22.971 76.8603 22.8942 77.2443 22.7406C77.6283 22.5678 77.9547 22.3278 78.2235 22.0206C78.4923 21.7134 78.7131 21.3678 78.8859 20.9838C79.0587 20.5806 79.1739 20.1486 79.2315 19.6878V19.659H76.3227C75.7659 19.659 75.3051 19.7358 74.9403 19.8894C74.5947 20.0238 74.3355 20.2254 74.1627 20.4942C73.9899 20.7438 73.9035 21.0318 73.9035 21.3582C73.9035 21.7038 73.9899 22.0014 74.1627 22.251C74.3355 22.5006 74.5755 22.683 74.8827 22.7982C75.1899 22.9134 75.5451 22.971 75.9483 22.971Z" fill="white"/>
<path d="M44.1991 25.736V5.576H49.3831L55.2583 17.7008L61.0759 5.576H66.2311V25.736H61.9111V12.8624L56.9575 22.9136H53.5015L48.5191 12.8624V25.736H44.1991Z" fill="white"/>
<path d="M12.7333 14.1333L1 7.2V21.0667L12.7333 27.4667V14.1333Z" fill="#3291F6"/>
<path d="M36.2001 21.0667V7.20001L24.4668 14.1333V28L36.2001 21.0667Z" fill="#3248F6"/>
<path d="M6.86719 17.3333V4L18.6005 10.9333L30.3339 4V17.3333L18.6005 24.2667L6.86719 17.3333Z" fill="#32D9F6"/>
</svg>
