<svg width="108" height="109" viewBox="0 0 108 109" fill="none" xmlns="http://www.w3.org/2000/svg">
<rect width="108" height="108" rx="20" fill="url(#paint0_linear_13081_2210)"/>
<path d="M49.8696 102.638L62 108H20C8.95431 108 0 99.0457 0 88V45L2.69565 55.7234L49.8696 102.638Z" fill="#D9D9D9"/>
<path d="M49.8696 102.638L62 108H20C8.95431 108 0 99.0457 0 88V45L2.69565 55.7234L49.8696 102.638Z" fill="url(#paint1_linear_13081_2210)"/>
<g style="mix-blend-mode:multiply" filter="url(#filter0_f_13081_2210)">
<path d="M9.66234 78.485C7.22078 75.4078 6.20346 66.2128 6 62L53 104.861C51.9827 105.044 48.9714 105.191 45.0649 104.312C40.1818 103.213 34.6883 98.267 30.4156 96.069C26.1429 93.871 12.7143 82.3315 9.66234 78.485Z" fill="black" fill-opacity="0.6"/>
</g>
<path fill-rule="evenodd" clip-rule="evenodd" d="M74.8059 33.001C71.783 32.9767 68.4677 33.3973 65.4675 34.253C62.5068 35.0975 59.7038 36.4083 57.8299 38.2711L52.3206 43.3637C52.1889 43.4854 52.0009 43.5247 51.8317 43.4658L49.4061 42.6229C47.4717 41.9507 45.3231 42.4435 43.875 43.8916L41.7119 46.0547C41.1429 46.6237 41.1429 47.5462 41.7119 48.1152L61.1368 67.5414C61.41 67.8147 61.7806 67.9682 62.167 67.9682C62.5536 67.9682 62.924 67.8147 63.1974 67.5414L65.3607 65.3781C66.8087 63.9301 67.3015 61.7819 66.6296 59.8475L65.7863 57.4205C65.7276 57.2511 65.7669 57.0633 65.8885 56.9316L70.9811 51.4225C74.6247 47.7607 76.251 41.383 76.251 34.4579C76.251 33.6578 75.6059 33.0074 74.8059 33.001ZM67.4121 41.8139C66.6535 41.0553 65.4234 41.0553 64.6648 41.8139C63.9062 42.5726 63.9062 43.8026 64.6648 44.5612L64.6771 44.5736C65.4359 45.3322 66.6657 45.3322 67.4243 44.5736C68.1831 43.8149 68.1831 42.5849 67.4243 41.8263L67.4121 41.8139Z" fill="#B4B4B4"/>
<path fill-rule="evenodd" clip-rule="evenodd" d="M43.144 54.4521C43.9027 55.2107 43.9028 56.4408 43.1442 57.1994L37.3164 63.0282C36.5578 63.787 35.3278 63.787 34.5691 63.0286C33.8104 62.27 33.8103 61.0399 34.5689 60.2812L40.3967 54.4525C41.1553 53.6937 42.3853 53.6935 43.144 54.4521ZM48.972 60.2802C49.7306 61.0388 49.7307 62.2687 48.9721 63.0274L37.3163 74.6842C36.5577 75.4428 35.3277 75.4428 34.569 74.6842C33.8104 73.9256 33.8103 72.6957 34.5689 71.9369L46.2247 60.2802C46.9833 59.5216 48.2133 59.5216 48.972 60.2802ZM54.7997 66.1079C55.5585 66.8665 55.5587 68.0965 54.8001 68.8551L48.9721 74.684C48.2135 75.4428 46.9835 75.4428 46.2248 74.6844C45.4661 73.9258 45.466 72.6957 46.2246 71.9369L52.0524 66.1083C52.811 65.3495 54.0411 65.3493 54.7997 66.1079Z" fill="#B4B4B4"/>
<path d="M20.2626 67.8C4.65807 61.904 -0.139615 47.4767 0.0845873 41C-0.321524 52.7375 3.20811 64.6746 10.6892 73.7282C24.9903 91.0355 45.173 108 59.2737 108H66C66 108 53.7586 107.196 47.8396 93.26C40.4409 75.84 39.7682 75.17 20.2626 67.8Z" fill="url(#paint2_linear_13081_2210)"/>
<defs>
<filter id="filter0_f_13081_2210" x="2" y="58" width="55" height="51" filterUnits="userSpaceOnUse" color-interpolation-filters="sRGB">
<feFlood flood-opacity="0" result="BackgroundImageFix"/>
<feBlend mode="normal" in="SourceGraphic" in2="BackgroundImageFix" result="shape"/>
<feGaussianBlur stdDeviation="2" result="effect1_foregroundBlur_13081_2210"/>
</filter>
<linearGradient id="paint0_linear_13081_2210" x1="101" y1="7" x2="14.5" y2="91.5" gradientUnits="userSpaceOnUse">
<stop offset="0.0996827" stop-color="#FEFEFE"/>
<stop offset="1" stop-color="#D9D9D9"/>
</linearGradient>
<linearGradient id="paint1_linear_13081_2210" x1="32" y1="77" x2="3.25778" y2="99.1862" gradientUnits="userSpaceOnUse">
<stop stop-color="#3248F6"/>
<stop offset="0.723735" stop-color="#3291F6"/>
<stop offset="0.974323" stop-color="#32D9F6"/>
</linearGradient>
<linearGradient id="paint2_linear_13081_2210" x1="16.2237" y1="53.73" x2="54.3701" y2="105.462" gradientUnits="userSpaceOnUse">
<stop stop-color="#E1E1E1"/>
<stop offset="1" stop-color="#C2C2C2"/>
</linearGradient>
</defs>
</svg>
