<svg width="22" height="22" viewBox="0 0 22 22" fill="none" xmlns="http://www.w3.org/2000/svg">
<g id="elements">
<path id="Vector 7163" d="M1 4L7.91302 7.92462C10.4387 9.35846 11.5613 9.35846 14.087 7.92462L21 4" stroke="#1C1C1C" stroke-width="1.5" stroke-linejoin="round"/>
<path id="Vector" d="M9.5 18.5C9.0337 18.4939 8.56682 18.485 8.09883 18.4732C4.95033 18.3941 3.37608 18.3545 2.24496 17.2184C1.11383 16.0823 1.08114 14.5487 1.01577 11.4814C0.994745 10.4951 0.994745 9.51468 1.01576 8.52843C1.08114 5.46113 1.11382 3.92748 2.24495 2.79139C3.37608 1.6553 4.95033 1.61573 8.09882 1.53658C10.0393 1.4878 11.9607 1.48781 13.9012 1.53659C17.0497 1.61574 18.6239 1.65532 19.755 2.79141C20.8862 3.92749 20.9189 5.46114 20.9842 8.52844C20.9939 8.98251 20.9991 9.19649 20.9999 9.5" stroke="#1C1C1C" stroke-width="1.5" stroke-linecap="round" stroke-linejoin="round"/>
<path id="Vector_2" d="M18 16C18 16.8284 17.3284 17.5 16.5 17.5C15.6716 17.5 15 16.8284 15 16C15 15.1716 15.6716 14.5 16.5 14.5C17.3284 14.5 18 15.1716 18 16ZM18 16V16.5C18 17.3284 18.6716 18 19.5 18C20.3284 18 21 17.3284 21 16.5V16C21 13.5147 18.9853 11.5 16.5 11.5C14.0147 11.5 12 13.5147 12 16C12 18.4853 14.0147 20.5 16.5 20.5" stroke="#1C1C1C" stroke-width="1.5" stroke-linecap="round" stroke-linejoin="round"/>
</g>
</svg>
