<svg width="22" height="22" viewBox="0 0 22 22" fill="none" xmlns="http://www.w3.org/2000/svg">
<g id="elements">
<circle id="Ellipse 1974" cx="16" cy="16" r="5" stroke="#1C1C1C" stroke-width="1.5"/>
<path id="Ellipse 1975" d="M6.5 12H5.4C3.32582 12 2.28873 12 1.64437 11.3556C1 10.7113 1 9.67418 1 7.6V5.4C1 3.32582 1 2.28873 1.64437 1.64437C2.28873 1 3.32582 1 5.4 1H7.6C9.67418 1 10.7113 1 11.3556 1.64437C12 2.28873 12 3.32582 12 5.4V6.5" stroke="#1C1C1C" stroke-width="1.5"/>
<path id="Ellipse 1976" d="M11.0348 18C8.17734 17.5206 6 15.0355 6 12.0418C6 8.70499 8.70499 6 12.0418 6C15.0355 6 17.5206 8.17734 18 11.0348" stroke="#1C1C1C" stroke-width="1.5"/>
</g>
</svg>
