<svg width="22" height="22" viewBox="0 0 22 22" fill="none" xmlns="http://www.w3.org/2000/svg">
<g id="elements">
<path id="Vector" d="M16.5 16.5L21 21" stroke="#1C1C1C" stroke-width="1.5" stroke-linecap="round" stroke-linejoin="round"/>
<path id="Vector_2" d="M19 10C19 5.02944 14.9706 1 10 1C5.02944 1 1 5.02944 1 10C1 14.9706 5.02944 19 10 19C14.9706 19 19 14.9706 19 10Z" stroke="#1C1C1C" stroke-width="1.5" stroke-linejoin="round"/>
<path id="Rectangle 2076" d="M8.4924 6.5C7.77591 6.54342 7.31993 6.66286 6.99139 6.99139C6.66286 7.31993 6.54342 7.77591 6.5 8.4924M11.5076 6.5C12.2241 6.54342 12.6801 6.66286 13.0086 6.99139C13.3371 7.31993 13.4566 7.77591 13.5 8.4924M13.4923 11.6214C13.4431 12.273 13.3194 12.6978 13.0086 13.0086C12.6801 13.3371 12.2241 13.4566 11.5076 13.5M8.4924 13.5C7.7759 13.4566 7.31993 13.3371 6.99139 13.0086C6.6806 12.6978 6.55693 12.273 6.50772 11.6214" stroke="#1C1C1C" stroke-width="1.5" stroke-linecap="round" stroke-linejoin="round"/>
</g>
</svg>
