<svg width="24" height="24" viewBox="0 0 24 24" fill="none" xmlns="http://www.w3.org/2000/svg">
<path d="M11.9981 1.25C13.0474 1.25 13.8739 2.04253 14.4015 3.11191L16.1636 6.66516C16.217 6.77513 16.3437 6.92998 16.5341 7.07164C16.7243 7.21315 16.9105 7.29121 17.033 7.3118L20.2227 7.84613C21.3749 8.03973 22.3406 8.60449 22.6541 9.5879C22.9673 10.5705 22.5084 11.5916 21.6798 12.4216L21.679 12.4225L19.2011 14.9209C19.1029 15.0199 18.9929 15.2064 18.9239 15.4494C18.8554 15.6908 18.8493 15.9107 18.8804 16.0527L18.8808 16.0547L19.5897 19.1454C19.8838 20.4317 19.7863 21.7073 18.8791 22.3742C17.9687 23.0433 16.7247 22.7467 15.5944 22.0736L12.6046 20.289C12.479 20.214 12.2633 20.1532 12.003 20.1532C11.7446 20.1532 11.5245 20.2132 11.3907 20.291L11.3889 20.2921L8.40483 22.0732C7.276 22.7487 6.03349 23.04 5.12306 22.3702C4.21644 21.7032 4.11409 20.43 4.40906 19.1447L5.11785 16.0547L5.11828 16.0527C5.14936 15.9107 5.14328 15.6908 5.07475 15.4494C5.00575 15.2064 4.89574 15.0199 4.79753 14.9209L2.3178 12.4206C1.4946 11.5906 1.03716 10.5704 1.3479 9.58925C1.65954 8.60525 2.62338 8.0398 3.77628 7.84606L6.96327 7.31219L6.96428 7.31202C7.08112 7.29175 7.26465 7.21456 7.45443 7.07268C7.64456 6.93054 7.77154 6.77535 7.82507 6.66516L7.82777 6.65967L9.58757 3.11097L9.58827 3.10957C10.121 2.04108 10.95 1.25 11.9981 1.25Z" fill="white"/>
</svg>
